<?xml version="1.0" encoding="utf-8"?>
<!-- Generator: Adobe Illustrator 24.1.1, SVG Export Plug-In . SVG Version: 6.00 Build 0)  -->
<svg version="1.1" id="Layer_3" xmlns="http://www.w3.org/2000/svg" xmlns:xlink="http://www.w3.org/1999/xlink" x="0px" y="0px"
	 viewBox="0 0 666.9 713.5" style="enable-background:new 0 0 666.9 713.5;" xml:space="preserve">
<style type="text/css">
	.st0{fill:#6C63FF;}
	.st1{fill:#3F3D56;}
	.st2{fill:#2F2E41;}
	.st3{fill:#FFB9B9;}
</style>
<g id="Globe">
	<path class="st0" d="M560.9,186.4v1.1c0,2.7-0.1,5.4-0.2,8.1c-5.1,99.5-89.8,176.1-189.3,171c-91.5-4.7-165-77.2-170.9-168.6
		c-0.2-3.8-0.4-7.7-0.4-11.5c-0.1-37.4,11.5-73.8,33.2-104.3c1.7-2.5,3.5-4.9,5.4-7.2c1.3-1.6,2.6-3.3,4-4.8
		C305.9-5,417.7-15.6,494,46.2c2.2,1.8,4.3,3.6,6.4,5.4c1.7,1.5,3.3,3,4.9,4.6c31.7,30.4,51.3,71.3,54.9,115.1
		C560.6,176.2,560.9,181.3,560.9,186.4z"/>
	<path class="st1" d="M238.7,74.9c0.1,0,0.2,0.1,0.2,0.1c1,0.8-0.2,2.3-0.1,3.6c0.2,1.6,2.3,2,4,2.1c1.6,0.2,3.7,1.5,2.9,2.9
		c-4.1,1.4-8.2,0-12.4-1.6c-21.6,30.5-33.2,66.9-33.2,104.3c0,3.9,0.1,7.7,0.4,11.5c0.3,0.3,0.7,0.5,1.1,0.6c1.2,0.5,2.7,0.4,3.8,1
		c0.9,0.5,1.5,1.5,2.4,2c2.6,1.4,6.1-1.3,8.5,0.4c0.6,0.6,1.2,1.2,1.8,1.8c2.2,1.9,5.8,0.6,8.4,2.1c1.6,0.9,2.5,2.8,3.4,4.4
		c2.2,4.2,5.8,8.3,10.5,8.6c1.5-0.1,3,0,4.4,0.1c1.4,0.3,2.9,1.6,2.6,3.1c-0.4,2.5,0.8,5.3,0.5,7.8c-0.6,4.6-7.1,6.6-7.7,11.2
		c0,1-0.1,2-0.2,3c-0.3,1.2-1.2,2.2-1.5,3.4c-0.6,2.3,1,4.5,2.8,6.1c1.8,1.5,3.9,2.9,4.9,5c1,2.3,0.5,4.9,0.9,7.4
		c0.7,5.4,5.4,9.4,10.2,12c1.5,0.6,2.9,1.6,4,2.9c1.2,1.8,1.1,4.1,1.5,6.2c1,5.2,5.4,9.5,5.5,14.8c0.1,3.8-2,7.2-3.3,10.7
		c-1.3,3.7-1.7,7.7-1.1,11.6c7,5.9,14.4,11.3,22.2,16.1c0.4-0.6,0.7-1.3,0.9-2.1c0.3-1.7-0.5-3.3-1.9-4.2c1.3-0.5,2.5-1.3,3.5-2.3
		c1-1,1.3-2.6,0.6-3.9c2.2,0.3,4.7,0.4,6.1-1.3c1.1-1.3,1.1-3.3,0.6-5c-0.5-1.7-1.2-3.3-1.2-5.1c5,0.2,10,0.1,15-0.5
		c-0.7-2.4-2.4-4.5-4.6-5.7c2.3-0.4,4.3-3.1,5-5.3c0.6-2.2,0.6-4.6,0.1-6.8c-0.2-0.6-0.2-1.2-0.1-1.8c0.4-0.8,1-1.4,1.8-1.7
		c3.7-2.1,7.5-4.3,11.2-6.4c0.7-0.3,1.3-0.8,1.8-1.3c1.2-1.4,1-3.5,0.4-5.2s-1.6-3.3-1.8-5.1c-0.7-5.4,5.1-9.2,7-14.3
		c0.7-2,1-4.1,1.1-6.2c0.2-2.3,0.2-4.9-1.6-6.4c-1.7-1.4-4.3-1.1-6-2.4c-1.6-1.2-2.2-3.5-3.9-4.5c-1.6-0.9-3.6-0.3-5.4-0.7
		c-3.1-0.7-5.1-4.3-8.3-4.7c-1.8-0.2-3.8,0.7-5.3-0.4c-1.3-0.9-1.3-2.8-1.6-4.4c-0.9-5-4.8-8.9-9.8-9.8c-1.9-0.3-3.9-0.2-5.4-1.2
		c-1.6-1-2.3-3-3.6-4.4c-2-2.3-5.2-3.1-8.2-3.8c-4-0.9-8.1-1.9-12.1-2.8c-2.1-0.5-4.9-0.8-6.1,1.1c-0.3,0.7-0.6,1.5-0.7,2.3
		c-0.9,2.9-3.6,4.9-6.6,5c-1-1.7-2.7-3-4.6-3.6c-1.3-0.2-2.5-0.5-3.7-0.9c-2.6-1.3-3.7-4.4-2.4-7c0-0.1,0.1-0.2,0.1-0.3
		c1.4-2.6,1-5.8-1.1-7.8c-2.1-1.9-5-2.3-7.8-2.1c-0.7-1.6,0.5-3.4,1.8-4.5c1.3-1.1,2.9-2.3,3.2-4c0.5-2.7-3-4.7-5.6-4
		c-2.6,0.8-4.3,3.4-5.4,5.9c-0.5,1.5-1.3,2.9-2.2,4.2c-0.9,1.3-2.5,1.9-4.1,1.7c-2.2-0.6-3-3.1-3.5-5.3c-0.8-2.9-1.2-5.9-1.2-8.8
		c0-3,1.2-5.9,3.3-8c3.6-3.3,9.1-3,13.9-2.4c-1.1-1.4-0.9-3.4,0.4-4.7c1.3-1.2,3.1-1.6,4.8-1.2c1.5,0.3,2.8,1.1,3.7,2.2
		c1.4,1.7,1.8,3.9,2.8,5.8c1,1.9,3.4,3.5,5.3,2.5c1.7-0.9,1.9-3.2,1.5-5c-0.4-1.8-1.3-3.6-1.1-5.5c0.3-3.5,4-5.7,7.2-7.2
		s7-3.4,7.5-7c0-0.7,0.2-1.4,0.4-2c0.4-0.6,0.9-1.1,1.5-1.4c9.5-6.3,19.1-12.6,30-16.1c0.6-0.2,0.6,0,1.2-0.1
		c0.8-0.5,0.3-1.8-0.5-2.3s-1.8-0.9-2-1.8c-0.1-0.7,0.3-1.3,0.4-2c0.1-1.4-1-2.6-2.3-2.6c-0.3,0-0.6,0-0.9,0.1
		c-0.9-1.2,0.8-2.5,2.2-2.9c4.2-1.1,8.5-1.8,12.8-2.1c0.5-0.1,1,0,1.5,0.2c0.7,0.6,0.7,1.7,0.1,2.4c-0.6,0.7-1.2,1.3-2,1.8
		c-1.4,1.4-2,3.5-1.4,5.4c2.3,1.2,4.7,2.3,7.2,1.9c2.5-0.4,4.7-3.2,3.5-5.5c-1.1-2.1-4.4-2.6-5-4.9c-0.7-2.7,3.1-5.1,2.3-7.7
		c-0.4-1.2-1.5-1.8-2.4-2.7c-2.1-2.1-2.8-5.3-1.6-8c-2.9,0.5-5.9-0.4-8-2.5c-1.9-1.9-3.4-5-6.2-4.9c-2.5,0.1-4.6,3-7,2.1
		c-0.6-0.2-1.2-0.7-1.7-0.4c-0.4,0.2-0.6,0.6-0.7,1.1c-0.6,2.8,0.4,6.1-1.1,8.5c-1.7,2.7-5.6,3-7.6,5.4c-1.1,1.3-1.5,3.1-2.6,4.4
		s-3.2,2.3-4.4,1.1c1.2-2.5,0.6-5.6-1.6-7.4c-1.1-0.7-2.4-1.3-3.6-1.8c-1.4-0.6-2.8-1.4-4.1-2.3c-0.6-0.4-1.1-0.9-1.5-1.6
		c-0.3-0.8-0.2-1.7,0.1-2.5c1.3-3.6,4.4-6.2,8.2-6.8c1.6-0.2,3.5-0.1,4.6-1.4c0.6-0.7,0.9-1.6,1.7-1.9c0.5-0.1,1.1,0,1.6,0.2
		c2,0.7,4,1.4,6.1,2.1c0.7,0.3,1.4,0.4,2.2,0.4c0.8-0.1,1.3-0.8,1.3-1.5c-0.2-1-1.7-1.5-1.6-2.5c0.1-0.3,0.2-0.6,0.5-0.9
		c4.4-4.7,10.7-7.2,17.2-6.8c0.8,1.3-0.4,2.7-1.5,3.8c-1,1.1-1.8,3-0.6,3.8c0.5,0.3,1,0.4,1.6,0.4c1.5,0.2,2.9,0.6,4.3,1.3
		c2.1,0.9,4.2,1.9,6.2,3c-0.3-1.3-0.2-2.7,0.1-4c0.5-1.3,1.8-2.1,3.2-1.7c1.2,0.5,1.8,2.1,3.1,2.2c1.7,0.2,2.4-2.3,1.7-3.9
		s-2.1-2.9-2.2-4.6c-0.1-1.2,0.4-2.6-0.6-3.3c-0.3-0.2-0.7-0.4-1.1-0.4c-7.7-1.4-15.4-2.8-23.1-4.2c-1.4-0.3-3.4-0.1-3.4,1.3
		c0,0.8,0.7,1.6,0.4,2.3c-0.3,0.8-1.4,0.7-2.2,1c-1.2,0.5-1.9,1.8-1.7,3.2c0.2,1.3,0.7,2.5,1.4,3.5c-1.5-0.6-3.8-0.7-5.3-1.4
		c-0.2-1.7-0.7-3.5-1.3-5.1c-0.1-1-1.1-1.7-2-1.5c-0.1,0-0.2,0-0.3,0.1c-2,0.3-4,0.6-6,0.9c-0.5,0-1,0.2-1.4,0.5
		c-0.8,0.8,0,2.1,0,3.3c-0.1,1.3-1.1,2.4-2.4,2.6c-1.2,0.3-2.5,0.2-3.8,0c-2.8-0.4-5.6-0.9-8.3-1.3c2.5-0.8,4.6-2.2,6.3-4.2
		c1.1-1.3,1.7-3.7,0.1-4.3c-0.5-0.1-1-0.2-1.4-0.1c-3.8,0-6.8-3.1-10.3-4.5c-1.1-0.4-2.3-0.6-3.5-0.6L238.7,74.9z"/>
	<path class="st1" d="M560.6,195.6c-0.9,1.2-2.3,1.8-3.8,1.8c-3.8-0.3-5.5-5.9-9.3-6.5c-0.3-0.1-0.7-0.1-1,0.1
		c-0.6,0.3-0.7,1.1-0.7,1.7c-0.2,3.2-0.3,6.5,0.9,9.4c1.8,4.3,6.5,7.9,5.5,12.4c-5.3-2.4-8-8.4-9.3-14.1c-1.3-5.7-1.4-11.6-3.7-17
		c-1.7,2.2-5.3,0.4-6.8-1.9c-1.5-2.2-2.4-4.7-3.8-6.9c-1.4-2.2-3.6-4.1-6.2-4.3c-2.7-0.1-5.1,1.8-7.2,3.5c-1.8,1.3-3.3,3-4.5,5
		c-1.5,2.9-1.1,6.4-1.2,9.7c-0.1,3.5-0.8,7.3-3.2,9.9c-2.4,2.6-6.9,3.5-9.5,1.2c-1.3-1.3-2.2-3-2.7-4.8c-2.9-8.4-5.3-17-7.2-25.7
		c-0.4,2-2.2,4.6-3.9,3.4c-0.4-0.3-0.7-0.7-0.9-1.2c-3.1-5.3-8.9-8.4-14.7-10.3c-5.8-1.9-11.9-2.8-17.7-4.9
		c-3.2-1.2-6.3-2.7-9.2-4.6c-1.5,2.2-1.7,5-0.4,7.4c1.3,2.3,4.1,3.5,6.7,2.8c1.3-0.4,2.4-1.3,3.6-1.7c1.3-0.4,3-0.2,3.5,1
		c0.5,1.2-0.3,2.6,0.1,3.8c0.6,1.9,3.4,2,4.4,3.7c0.6,1.4,0.2,3-0.9,4c-1.1,0.9-2.4,1.7-3.7,2.3c-4.1,2.3-7.1,6.2-10.7,9.3
		c-3.6,3.1-8.7,5.3-13,3.3c1-5.2-5.2-9-6.3-14.2c-0.4-1.7-0.2-3.5-0.7-5.2c-0.8-2.4-2.9-4-4.7-5.9c-4.3-4.5-6.6-10.5-6.3-16.8
		c0.1-2.1,0.5-4.3,0-6.4c-0.5-2.1-2.2-4.1-4.3-4c-4.9,0.2-11,0.6-13.6-3.6c-0.9-1.5-1.3-3.7,0-4.8c0.9-0.8,2.3-0.7,3.5-0.6
		c3.7,0.4,7.3,0.7,11,1.1c2.6,0.2,5.3,0.5,7.5-0.9s3.2-4.9,1.1-6.5c-1.5-1.2-4.2-1.1-4.6-2.9c-0.4-1.5,1.3-3.3,0.4-4.6
		c-0.7-0.9-2.1-0.7-3,0c-0.8,0.8-1.6,1.6-2.5,2.2c-1.8,0.9-3.8,0-5.7-0.6s-4.4-0.6-5.3,1.1c-1,2,0.9,4.5-0.1,6.5
		c-1.3,2.6-5.9,1.1-7.8,3.4c-2.2,2.6,1.5,6.4,0.7,9.6c-1.9,0.9-4.1,0.8-5.9-0.3c-1.7-1.2-2.7-3.2-2.5-5.4c0.2-1.5,0.9-3,0.4-4.4
		c-0.6-1.1-1.5-1.9-2.6-2.4c-3.6-2-7.1-3.9-10.7-5.9c-1,1.8,0.3,4.1,1.8,5.5c1.6,1.4,3.5,2.4,4.6,4.2c1.4,2.6,0.4,5.8-2.1,7.3
		c-0.3,0.2-0.7,0.3-1.1,0.2c-0.3-0.2-0.6-0.5-0.7-0.9c-1.9-4.8-4.7-9.6-9.2-12.1c-4.5-2.5-11-2-14,2.2c-0.7,1-1.2,2.2-1.8,3.2
		c-3.3,5.7-10.2,8.3-16.8,8.2c-0.6,0-1.3-0.1-1.8-0.4c-1.1-0.7-1-2.3-0.8-3.5c0.2-1.8,0.5-3.6,0.7-5.4c0-1.1,0.4-2.2,1.2-3
		c1.2-1,3-0.4,4.5-0.4c2.4-0.1,4.5-1.7,5.2-4c0.6-2.3-0.1-4.8-1.8-6.4c-0.7-0.7-1.6-1.5-1.3-2.4c0.3-0.5,0.8-0.8,1.4-0.9
		c2.8-0.8,5.7-1,8.4-2c2.7-0.9,5.4-2.9,6-5.7c0.2-0.9,0.3-1.9,1.1-2.3c0.4-0.2,0.8-0.2,1.2-0.2c3.1-0.4,5.3-3.1,5.1-6.2
		c1.3-0.9,3.1-0.2,4.4,0.7c1.3,1,2.4,2.2,3.9,2.7c2.9,0.8,5.6-1.8,8.6-1.8c1.3,0,2.5,0.4,3.7,0c1.2-0.4,1.9-1.6,2.8-2.5
		c0.9-0.9,2.5-1.4,3.4-0.5c-0.2-1.8-0.5-3.5-0.7-5.3c2.9,0.7,6,0.2,8.5-1.5c-3.1-1-6.2-2.1-9.3-3.1c-0.3-0.1-0.6-0.2-0.9-0.5
		c-0.7-0.7,0-1.9,0.5-2.7c1.3-2,1.5-5.2-0.6-6.2c-1.5-0.7-3.2,0.1-4.6,0.9c-2.3,1.3-4.5,2.5-6.8,3.8c-0.2,1.3,1.4,2,2.3,2.9
		c1.6,1.4,1.8,3.9,0.3,5.5c-0.7,0.8-1.8,1.3-2.9,1.3c0.9,1.2,1.2,2.7,0.9,4.1c-1.5,0.1-3,0.2-4.6,0.3c-0.5,0.1-1,0-1.5-0.3
		c-0.5-0.4-0.4-1.2-0.5-1.8c-0.4-1.6-1.7-2.7-3.3-2.9c-1.6-0.2-3.1,0-4.7,0.4c-0.7,0.2-1.4,0.2-2,0c-0.4-0.2-0.6-0.6-0.8-1
		c-0.5-1.7-0.2-3.6,1-4.9c1.2-1.3,2.5-2.5,3.9-3.6c3.2-2.8,5.5-6.4,6.7-10.4c2.5-1.1,5.1-2.5,7.6-3.5c2-0.9,4.1-1.6,6.3-2.1
		c2-0.3,4.1-0.4,6.2-0.3c2.8,0,5.7,0.1,8.5,0.2c2.5-0.1,5,0.3,7.4,1.1c2.3,1,4.4,3,4.5,5.5c0.1,0.6-0.1,1.2-0.6,1.6
		c-0.3,0.2-0.7,0.3-1.1,0.2c-2.3,0.1-3.3,0.7-5.7,0.7c1.5,1.6,3.2,3.3,5.3,3.5c3.8,0.5,6.5-3.4,8.3-6.9c0.1,1.8,1.7,3.2,3.5,3.1
		c0.9-0.2,1.8-0.5,2.6-1c7.5-4.1,16-6.3,24.6-6.4c-0.2-1.3,0.7-2.6,2-2.9c1.8-0.3,3.3,1.2,4.2,2.7c0.8,1.6,1.4,3.4,2.7,4.6
		c1.3,1.2,3.9,1.1,4.5-0.6c0.5-1.6-1.2-3-2.6-4c-1.4-1-2.9-2.7-2-4.2c7.2-1.6,14.5-3.2,21.9-3.5c1.3,0,2.5-0.2,3.7-0.6
		c1.2-0.5,1.9-1.7,1.7-3c-3.3,0.8-6.7-0.5-8.7-3.3c7.6-0.6,15.5-1.2,22.8,0.5l6.4,5.4c-1.2,1.3-2.8,2.5-2,3.7
		c0.6,0.6,1.4,0.9,2.2,0.8c1.5,0,3.1,0.1,4.6,0.1c31.7,30.4,51.3,71.3,54.9,115.1c-2.6-0.1-4.9,3.2-4.6,6c0.4,3.3,2.8,6,4.5,8.8
		c0.3,0.5,0.5,0.9,0.8,1.4L560.6,195.6z"/>
</g>
<g id="Girl">
	<circle class="st2" cx="322.1" cy="332.9" r="31"/>
	<path class="st3" d="M307.3,348.6c0,0-10.1,22.4-13,23.1s23.8,13.7,23.8,13.7s5-27.4,7.2-28.8S307.3,348.6,307.3,348.6z"/>
	<polygon class="st3" points="247.5,531.8 228.7,584.4 248.9,592.4 283.5,523.9 	"/>
	<path class="st3" d="M313.1,533.2c0,0,37.5,52.6,39.7,53.4s17.3-12.3,17.3-12.3s-18.8-45.4-24.5-47.6S313.1,533.2,313.1,533.2z"/>
	<path class="st2" d="M225.8,575.1l-29.6,77.2c0,0,2.2,4.3,0,5s-7.2,12.3-7.2,13s-5,1.4-5,3.6s-4.3,19.5-4.3,19.5s7.9,17.3,13,12.3
		s7.2-15.1,7.2-15.1l7.2-18.8c0,0-0.7-10.1,4.3-11.5s7.9-19.5,7.9-19.5s7.9-7.9,9.4-10.1s26.7-40.4,24.5-41.1
		S225.8,575.1,225.8,575.1z"/>
	<path class="st2" d="M348.4,585.2l21.6-14.4c0,0,37.5,68.5,37.5,70s-1.4,5.8,0,7.2s13.7,24.5,21.6,26.7s9.4,10.8,2.9,12.3
		s-15.1,5-17.3,0c-1.3-3-2.7-5.9-4.3-8.7c0,0-7.2,2.2-7.9,0.7c-0.8-2.1-1.6-4.3-2.2-6.5c0,0-5.8-10.1-5.8-13.7s-3.6-4.3-3.6-4.3
		s-7.9-18.8-13-21.6s-9.4-17.3-9.4-17.3L348.4,585.2z"/>
	<circle class="st3" cx="322.5" cy="344.3" r="20.9"/>
	<path class="st2" d="M260.4,471.2c0,0-31,82.2-26.6,82.2s124,2.6,127.6-3.2s-31.1-63.2-32.5-63.9S260.4,471.2,260.4,471.2z"/>
	<path class="st3" d="M229.4,299.6l-21.6-33.2c0,0,5.4-34.8-1.9-28.3s-9.5,32.7-9.5,32.7l25.1,38.2L229.4,299.6z"/>
	<path class="st3" d="M425.6,360.1l19.5-1.4c0,0,23.1-24.5,24.5-16.6c1.4,7.9-18.8,25.2-18.8,25.2l-26.7,2.9L425.6,360.1z"/>
	<path class="st1" d="M283.5,367.4v-7.2c0,0-18.8-12.3-18-14.4c0.7-2.2-1.4-3.6-1.4-3.6s-2.2-2.9-2.2-3.6c0-0.7-2.9-1.4-2.9-1.4
		l-18-20.9c0,0-10.1-20.2-12.3-19.5s-13.7,5-12.3,7.9s41.8,64.9,41.8,64.9s2.2,13.7,5.8,13.7S283.5,367.4,283.5,367.4z"/>
	<path class="st1" d="M331.8,376c0,0,15.9-0.7,16.6,0c0.7,0.7,10.8,0,10.8,0s27.4-6.5,29.6-8.7c2.2-2.2,38.2-11.5,39.7-7.2
		s5,13,1.4,14.4c-3.6,1.4-101,26-101,26L331.8,376z"/>
	<circle class="st2" cx="311.3" cy="300.3" r="12.8"/>
	<path class="st2" d="M294.2,293.4c0-6.6,5-12.1,11.5-12.8c-0.4,0-0.9-0.1-1.3-0.1c-7.1,0-12.8,5.7-12.8,12.8
		c0,7.1,5.7,12.8,12.8,12.8c0,0,0,0,0,0c0.4,0,0.9,0,1.3-0.1C299.1,305.4,294.2,299.9,294.2,293.4z"/>
	<ellipse class="st2" cx="325.7" cy="326.4" rx="21.4" ry="12.8"/>
	<path class="st1" d="M301.2,359.8c0,0-6.5,5-7.9,5.8c-1.4,0.7-10.1-6.5-11.5-6.5s-20.2,21.6-20.2,21.6s3.5,4,0,24.5
		c-1.3,7.7-3.9,40.6-3.9,44.9s-14.1,15-1.1,24.3s75,19.5,75.7,13.7s-7.2-20.9-3.6-28.1s3.6-33.9,3.6-33.9l4.3-28.1l3.6-22.4
		c0,0-16.9-4.7-18.4-4.7S313.8,381.1,301.2,359.8z"/>
</g>
</svg>
